<mxfile host="Electron" agent="Mozilla/5.0 (Windows NT 10.0; Win64; x64) AppleWebKit/537.36 (KHTML, like Gecko) draw.io/24.7.5 Chrome/126.0.6478.183 Electron/31.3.0 Safari/537.36" version="24.7.5">
  <diagram name="第 1 页" id="oWbLbp8aSllehA_xMn_U">
    <mxGraphModel dx="1029" dy="546" grid="1" gridSize="10" guides="1" tooltips="1" connect="1" arrows="1" fold="1" page="1" pageScale="1" pageWidth="827" pageHeight="1169" math="0" shadow="0">
      <root>
        <mxCell id="0" />
        <mxCell id="1" parent="0" />
        <mxCell id="vpSC0120phlXluzV_WGP-4" style="edgeStyle=orthogonalEdgeStyle;rounded=0;orthogonalLoop=1;jettySize=auto;html=1;entryX=1;entryY=0.5;entryDx=0;entryDy=0;fontSize=18;" edge="1" parent="1" source="vpSC0120phlXluzV_WGP-2" target="vpSC0120phlXluzV_WGP-3">
          <mxGeometry relative="1" as="geometry">
            <Array as="points">
              <mxPoint x="520" y="185" />
              <mxPoint x="520" y="80" />
            </Array>
          </mxGeometry>
        </mxCell>
        <mxCell id="vpSC0120phlXluzV_WGP-5" value="没找到血条" style="edgeLabel;html=1;align=center;verticalAlign=middle;resizable=0;points=[];fontSize=18;" vertex="1" connectable="0" parent="vpSC0120phlXluzV_WGP-4">
          <mxGeometry x="-0.6969" relative="1" as="geometry">
            <mxPoint x="-14" y="-15" as="offset" />
          </mxGeometry>
        </mxCell>
        <mxCell id="vpSC0120phlXluzV_WGP-17" value="" style="edgeStyle=orthogonalEdgeStyle;rounded=0;orthogonalLoop=1;jettySize=auto;html=1;fontSize=18;" edge="1" parent="1" source="vpSC0120phlXluzV_WGP-2" target="vpSC0120phlXluzV_WGP-16">
          <mxGeometry relative="1" as="geometry" />
        </mxCell>
        <mxCell id="vpSC0120phlXluzV_WGP-2" value="&lt;span style=&quot;text-align: left;&quot;&gt;走到指定位置且得有血条&lt;/span&gt;" style="rhombus;whiteSpace=wrap;html=1;fontSize=18;" vertex="1" parent="1">
          <mxGeometry x="200" y="140" width="230" height="90" as="geometry" />
        </mxCell>
        <mxCell id="vpSC0120phlXluzV_WGP-3" value="开始死循环" style="whiteSpace=wrap;html=1;fontSize=18;" vertex="1" parent="1">
          <mxGeometry x="265" y="60" width="100" height="40" as="geometry" />
        </mxCell>
        <mxCell id="vpSC0120phlXluzV_WGP-9" value="" style="edgeStyle=orthogonalEdgeStyle;rounded=0;orthogonalLoop=1;jettySize=auto;html=1;fontSize=18;" edge="1" parent="1" source="vpSC0120phlXluzV_WGP-6" target="vpSC0120phlXluzV_WGP-8">
          <mxGeometry relative="1" as="geometry" />
        </mxCell>
        <mxCell id="vpSC0120phlXluzV_WGP-6" value="等待怪物刷新" style="whiteSpace=wrap;html=1;fontSize=18;" vertex="1" parent="1">
          <mxGeometry x="255" y="350" width="120" height="60" as="geometry" />
        </mxCell>
        <mxCell id="vpSC0120phlXluzV_WGP-14" value="" style="edgeStyle=orthogonalEdgeStyle;rounded=0;orthogonalLoop=1;jettySize=auto;html=1;fontSize=18;" edge="1" parent="1" source="vpSC0120phlXluzV_WGP-8" target="vpSC0120phlXluzV_WGP-12">
          <mxGeometry relative="1" as="geometry" />
        </mxCell>
        <mxCell id="vpSC0120phlXluzV_WGP-8" value="策略识别血条的怪" style="whiteSpace=wrap;html=1;fontSize=18;" vertex="1" parent="1">
          <mxGeometry x="255" y="455" width="120" height="60" as="geometry" />
        </mxCell>
        <mxCell id="vpSC0120phlXluzV_WGP-20" value="" style="edgeStyle=orthogonalEdgeStyle;rounded=0;orthogonalLoop=1;jettySize=auto;html=1;fontSize=18;" edge="1" parent="1" source="vpSC0120phlXluzV_WGP-12" target="vpSC0120phlXluzV_WGP-19">
          <mxGeometry relative="1" as="geometry" />
        </mxCell>
        <mxCell id="vpSC0120phlXluzV_WGP-24" value="" style="edgeStyle=orthogonalEdgeStyle;rounded=0;orthogonalLoop=1;jettySize=auto;html=1;fontSize=18;" edge="1" parent="1" source="vpSC0120phlXluzV_WGP-12" target="vpSC0120phlXluzV_WGP-23">
          <mxGeometry relative="1" as="geometry" />
        </mxCell>
        <mxCell id="vpSC0120phlXluzV_WGP-26" value="" style="edgeStyle=orthogonalEdgeStyle;rounded=0;orthogonalLoop=1;jettySize=auto;html=1;fontSize=18;" edge="1" parent="1" source="vpSC0120phlXluzV_WGP-12" target="vpSC0120phlXluzV_WGP-25">
          <mxGeometry relative="1" as="geometry" />
        </mxCell>
        <mxCell id="vpSC0120phlXluzV_WGP-12" value="&lt;div style=&quot;text-align: left;&quot;&gt;&lt;span style=&quot;background-color: initial;&quot;&gt;调用服务端识别怪物&lt;/span&gt;&lt;/div&gt;" style="rhombus;whiteSpace=wrap;html=1;fontSize=18;" vertex="1" parent="1">
          <mxGeometry x="420" y="440" width="230" height="90" as="geometry" />
        </mxCell>
        <mxCell id="vpSC0120phlXluzV_WGP-18" value="" style="edgeStyle=orthogonalEdgeStyle;rounded=0;orthogonalLoop=1;jettySize=auto;html=1;fontSize=18;" edge="1" parent="1" source="vpSC0120phlXluzV_WGP-16" target="vpSC0120phlXluzV_WGP-6">
          <mxGeometry relative="1" as="geometry" />
        </mxCell>
        <mxCell id="vpSC0120phlXluzV_WGP-16" value="循环一定次数" style="whiteSpace=wrap;html=1;fontSize=18;" vertex="1" parent="1">
          <mxGeometry x="250" y="260" width="125" height="60" as="geometry" />
        </mxCell>
        <mxCell id="vpSC0120phlXluzV_WGP-22" value="" style="edgeStyle=orthogonalEdgeStyle;rounded=0;orthogonalLoop=1;jettySize=auto;html=1;fontSize=18;" edge="1" parent="1" source="vpSC0120phlXluzV_WGP-19" target="vpSC0120phlXluzV_WGP-16">
          <mxGeometry relative="1" as="geometry" />
        </mxCell>
        <mxCell id="vpSC0120phlXluzV_WGP-19" value="未识别成功" style="whiteSpace=wrap;html=1;fontSize=18;" vertex="1" parent="1">
          <mxGeometry x="475" y="260" width="120" height="60" as="geometry" />
        </mxCell>
        <mxCell id="vpSC0120phlXluzV_WGP-23" value="不是想要的目标，击杀" style="whiteSpace=wrap;html=1;fontSize=18;" vertex="1" parent="1">
          <mxGeometry x="475" y="570" width="120" height="60" as="geometry" />
        </mxCell>
        <mxCell id="vpSC0120phlXluzV_WGP-25" value="是想要的目标，停止" style="whiteSpace=wrap;html=1;fontSize=18;" vertex="1" parent="1">
          <mxGeometry x="680" y="455" width="120" height="60" as="geometry" />
        </mxCell>
      </root>
    </mxGraphModel>
  </diagram>
</mxfile>
